<?xml version="1.0" encoding="utf-8"?>
<svg xmlns="http://www.w3.org/2000/svg" viewBox="0 0 500 500">
  <text style="white-space: pre; fill: rgb(51, 51, 51); font-family: Arial, sans-serif; font-size: 28px;" x="393.031" y="274.906"> </text>
  <g id="_x32_" style="" transform="matrix(0.606014, 0, 0, 0.573563, -21.262075, 178.045258)">
    <path class="st0" d="M 375.126 317.815 C 371.264 316.369 367.054 314.379 362.776 312.021 L 291.206 410.956 L 286.116 346.142 L 248.083 346.142 L 242.992 410.956 L 171.423 312.021 C 167.015 314.487 162.767 316.508 159.062 317.815 C 121.584 331.008 29.513 368.951 35.455 440.025 C 36.881 457.081 130.676 474.78 267.1 474.78 C 403.513 474.78 497.308 457.081 498.734 440.025 C 504.677 368.882 412.367 331.741 375.126 317.815" style="stroke-width: 1;"/>
    <path class="st0" d="M 182.595 171.051 C 187.805 200.567 196.561 226.605 208.089 239.431 L 208.089 275.018 C 208.089 275.92 207.931 276.87 207.673 277.851 L 248.083 297.313 L 248.083 325.858 L 286.116 325.858 L 286.116 297.313 L 326.506 277.861 C 326.248 276.88 326.09 275.929 326.09 275.018 L 326.09 239.431 C 337.638 226.605 346.394 200.567 351.604 171.051 C 363.747 166.713 370.7 159.77 379.366 129.393 C 388.597 97.035 365.49 98.135 365.49 98.135 C 384.18 36.262 359.568 -21.887 318.366 -17.618 C 289.94 -67.348 194.739 -6.258 164.886 -10.516 C 164.886 6.539 171.998 19.326 171.998 19.326 C 161.619 39.016 165.62 78.277 168.552 98.135 C 166.848 98.105 145.95 98.323 154.824 129.393 C 163.499 159.77 170.432 166.714 182.595 171.051" style="stroke-width: 1;"/>
  </g>
  <text style="fill: rgb(51, 51, 51); font-family: Arial, sans-serif; font-size: 28px; font-weight: 700; white-space: pre; stroke-width: 1;" transform="matrix(4.002996, 0, 0, 4.254972, -364.379333, -111.963715)" x="147.547" y="103.314">NEW</text>
  <text style="white-space: pre; fill: rgb(51, 51, 51); font-family: Arial, sans-serif; font-size: 28px;" x="408.482" y="383.445"> </text>
  <text style="white-space: pre; fill: rgb(51, 51, 51); font-family: Arial, sans-serif; font-size: 28px;" x="587.061" y="422.97"> </text>
</svg>