<svg xmlns="http://www.w3.org/2000/svg" width="800" height="800" viewBox="0 0 512 512" xml:space="preserve"><path d="M34.044 278.031a2.13 2.13 0 0 0-2.266-.234 2.09 2.09 0 0 0-1.109 2l3.219 50.547c.078.891-.453 1.719-1.297 2.063L1.326 344.828a2.14 2.14 0 0 0-1.313 1.703 2.13 2.13 0 0 0 .891 1.953l83.922 50.922a2.02 2.02 0 0 0 1.969.203 2.06 2.06 0 0 0 1.266-1.563l12.641-71.875c.141-.75-.156-1.5-.734-1.984zm445.375 54.375a2.13 2.13 0 0 1-1.313-2.063l3.25-50.547a2.13 2.13 0 0 0-1.125-2 2.13 2.13 0 0 0-2.266.234l-65.922 46.156c-.578.484-.875 1.234-.734 1.984l12.656 71.875a2.02 2.02 0 0 0 1.234 1.563 2.08 2.08 0 0 0 2-.203l83.906-50.922a2.05 2.05 0 0 0 .875-1.953 2.1 2.1 0 0 0-1.281-1.703zm-223.421 60.063c-48.422 0-94.266-11.25-135.109-31.203l-13.156 74.75c45.609 19.281 95.719 29.953 148.266 29.953s102.672-10.672 148.281-29.953l-13.172-74.75c-40.814 19.953-86.657 31.203-135.11 31.203M74.873 186.625l6.515 13.172 14.531 2.109-10.515 10.25 2.469 14.485-13-6.844-13 6.844 2.484-14.485-10.531-10.25 14.547-2.109zm62.5-104.047 6.5 13.172 14.546 2.109-10.531 10.25 2.485 14.485-13-6.828-13.016 6.828 2.5-14.485-10.531-10.25 14.547-2.109zm299.765 104.047-6.5 13.172-14.532 2.109 10.516 10.25-2.484 14.485 13-6.844 13.015 6.844-2.484-14.485 10.516-10.25-14.547-2.109zM374.654 82.578l-6.5 13.172-14.547 2.109 10.516 10.25-2.469 14.485 13-6.828 12.999 6.828-2.484-14.485 10.531-10.25-14.546-2.109zM251.498 46.031l6.5 13.172 14.546 2.125-10.531 10.25 2.485 14.485-13-6.844-13 6.844 2.484-14.485-10.531-10.25 14.547-2.125zm-15.407 83.235a19.8 19.8 0 0 1 17.75-11.047 19.79 19.79 0 0 1 17.766 11.047l19.703 39.922a19.85 19.85 0 0 0 14.906 10.844l44.063 6.391c7.469 1.094 13.672 6.313 16 13.484s.391 15.031-5.016 20.297l-31.875 31.078a19.82 19.82 0 0 0-5.703 17.531l7.531 43.891a19.82 19.82 0 0 1-7.875 19.359 19.78 19.78 0 0 1-20.859 1.5l-39.422-20.719a19.8 19.8 0 0 0-18.422 0l-39.406 20.719a19.81 19.81 0 0 1-20.875-1.5 19.82 19.82 0 0 1-7.875-19.359l7.531-43.891a19.81 19.81 0 0 0-5.688-17.531l-31.891-31.078c-5.391-5.266-7.328-13.125-5-20.297s8.531-12.391 15.984-13.484l44.063-6.391c6.438-.938 12.031-5 14.906-10.844z" style="fill:#000"/></svg>