<svg width="88" height="23" viewBox="0 0 88 23" fill="none" xmlns="http://www.w3.org/2000/svg">
<path d="M21.7813 2.44726V1.77417H22.3753H24.6519C25.0412 1.77417 25.3778 1.81706 25.6615 1.90285C25.9453 1.98203 26.163 2.08432 26.3148 2.2097C26.4732 2.32848 26.5953 2.49015 26.6811 2.69472C26.7734 2.89269 26.8295 3.08405 26.8493 3.26883C26.8757 3.447 26.8889 3.66476 26.8889 3.92212C26.8889 4.17288 26.8757 4.39064 26.8493 4.57541C26.8229 4.75359 26.7701 4.93836 26.691 5.12972C26.6184 5.32109 26.4996 5.48277 26.3346 5.61475C26.1696 5.74673 25.9618 5.85231 25.711 5.9315C25.8628 6.06347 25.9981 6.26474 26.1168 6.5353L26.8889 8.32691H27.5125V9H26.097L25.0973 6.65408C24.9983 6.42971 24.8795 6.27794 24.741 6.19875C24.6024 6.11957 24.4044 6.07337 24.1471 6.06017H23.3948V8.32691H23.9491V9H21.7813V8.32691H22.3753V2.44726H21.7813ZM23.3948 5.2584H24.6321C24.896 5.2584 25.1138 5.22541 25.2854 5.15942C25.4636 5.09343 25.5922 4.99445 25.6714 4.86247C25.7506 4.73049 25.8034 4.59521 25.8298 4.45663C25.8562 4.31146 25.8694 4.13329 25.8694 3.92212C25.8694 3.47999 25.7902 3.14675 25.6318 2.92238C25.4735 2.69142 25.1402 2.57594 24.6321 2.57594H23.3948V5.2584ZM28.3826 4.01121V3.33811H29.9762V8.32691H30.5701V9H28.3826V8.32691H28.9765V4.01121H28.3826ZM29.4813 2.54624C29.3097 2.54624 29.1777 2.50995 29.0854 2.43736C28.993 2.35817 28.9369 2.27899 28.9171 2.1998C28.9039 2.11401 28.8973 2.00183 28.8973 1.86325C28.8973 1.71808 28.9039 1.60589 28.9171 1.52671C28.9369 1.44092 28.993 1.36173 29.0854 1.28914C29.1777 1.20996 29.3097 1.17036 29.4813 1.17036C29.6199 1.17036 29.7321 1.19016 29.8178 1.22975C29.9036 1.26275 29.963 1.31884 29.996 1.39803C30.029 1.47062 30.0488 1.5399 30.0554 1.60589C30.0686 1.67188 30.0752 1.75767 30.0752 1.86325C30.0752 1.96224 30.0686 2.04472 30.0554 2.11071C30.0488 2.1701 30.029 2.23939 29.996 2.31858C29.963 2.39777 29.9036 2.45716 29.8178 2.49675C29.7321 2.52974 29.6199 2.54624 29.4813 2.54624ZM35.3504 9L35.1921 8.43579C34.5982 8.90432 33.9614 9.13858 33.2817 9.13858C32.6878 9.13858 32.2621 9.0033 32.0048 8.73274C31.7474 8.46219 31.6187 8.06955 31.6187 7.55483C31.6187 6.98073 31.7408 6.56169 31.985 6.29774C32.2291 6.03378 32.6977 5.8754 33.3905 5.82261L35.004 5.72363V4.84267C35.004 4.54572 34.905 4.33125 34.707 4.19928C34.5091 4.0607 34.2517 3.99141 33.935 3.99141C33.473 3.99141 33.153 4.07719 32.9748 4.24877C32.8032 4.41374 32.7076 4.681 32.6878 5.05054L31.8563 5.01094C31.9025 4.40384 32.0741 3.95182 32.371 3.65486C32.6746 3.35131 33.2058 3.19954 33.9647 3.19954C35.324 3.19954 36.0037 3.72745 36.0037 4.78328V8.32691H36.5976V9H35.3504ZM33.539 8.3863C34.0933 8.3863 34.5817 8.18503 35.004 7.7825V6.42642L33.5786 6.5155C33.1893 6.5353 32.9253 6.61778 32.7867 6.76296C32.6548 6.90154 32.5888 7.1556 32.5888 7.52514C32.5888 7.82209 32.6614 8.03986 32.8065 8.17843C32.9517 8.31701 33.1959 8.3863 33.539 8.3863ZM41.6399 9L41.5211 8.49518C40.9932 8.92411 40.4257 9.13858 39.8186 9.13858C39.4424 9.13858 39.1158 9.08249 38.8386 8.9703C38.5681 8.85812 38.3536 8.71625 38.1952 8.54467C38.0434 8.3731 37.9247 8.14874 37.8389 7.87158C37.7531 7.59443 37.697 7.33047 37.6706 7.07971C37.6442 6.82235 37.631 6.5188 37.631 6.16906C37.631 5.81931 37.6442 5.51906 37.6706 5.2683C37.697 5.01094 37.7531 4.74369 37.8389 4.46653C37.9313 4.18938 38.0533 3.96501 38.2051 3.79344C38.3635 3.62187 38.5813 3.47999 38.8584 3.36781C39.1356 3.25563 39.4655 3.19954 39.8482 3.19954C40.3168 3.19954 40.8018 3.29192 41.3033 3.47669V2.32848H40.7094V1.65539H42.3031V8.32691H42.897V9H41.6399ZM40.0561 8.34671C40.5048 8.34671 40.9206 8.19493 41.3033 7.89138V4.22897C40.9008 4.0706 40.4916 3.99141 40.0759 3.99141C39.8318 3.99141 39.6206 4.0277 39.4424 4.10029C39.2708 4.16628 39.1323 4.25867 39.0267 4.37745C38.9211 4.49623 38.8386 4.6546 38.7792 4.85257C38.7198 5.04394 38.6802 5.24191 38.6604 5.44647C38.6406 5.64444 38.6307 5.8853 38.6307 6.16906C38.6307 6.44621 38.6406 6.68377 38.6604 6.88174C38.6802 7.07971 38.7165 7.27768 38.7693 7.47565C38.8287 7.66702 38.9079 7.82539 39.0069 7.95077C39.1125 8.06955 39.251 8.16523 39.4226 8.23782C39.6008 8.31041 39.812 8.34671 40.0561 8.34671ZM47.6654 9L47.5071 8.43579C46.9132 8.90432 46.2764 9.13858 45.5967 9.13858C45.0028 9.13858 44.5771 9.0033 44.3198 8.73274C44.0624 8.46219 43.9337 8.06955 43.9337 7.55483C43.9337 6.98073 44.0558 6.56169 44.3 6.29774C44.5441 6.03378 45.0127 5.8754 45.7055 5.82261L47.319 5.72363V4.84267C47.319 4.54572 47.22 4.33125 47.022 4.19928C46.8241 4.0607 46.5667 3.99141 46.25 3.99141C45.788 3.99141 45.468 4.07719 45.2898 4.24877C45.1182 4.41374 45.0226 4.681 45.0028 5.05054L44.1713 5.01094C44.2175 4.40384 44.3891 3.95182 44.686 3.65486C44.9896 3.35131 45.5208 3.19954 46.2797 3.19954C47.639 3.19954 48.3187 3.72745 48.3187 4.78328V8.32691H48.9126V9H47.6654ZM45.854 8.3863C46.4083 8.3863 46.8967 8.18503 47.319 7.7825V6.42642L45.8936 6.5155C45.5043 6.5353 45.2403 6.61778 45.1017 6.76296C44.9698 6.90154 44.9038 7.1556 44.9038 7.52514C44.9038 7.82209 44.9764 8.03986 45.1215 8.17843C45.2667 8.31701 45.5109 8.3863 45.854 8.3863ZM26.5623 13.5361H25.8199V12.566H24.3945V18.3269H25.2062V19H22.5633V18.3269H23.375V12.566H21.9595V13.5361H21.2072V11.7742H26.5623V13.5361ZM29.6569 19.1386C29.162 19.1386 28.7529 19.0759 28.4295 18.9505C28.1062 18.8251 27.8554 18.6305 27.6772 18.3665C27.5057 18.1025 27.3836 17.799 27.311 17.4558C27.245 17.1061 27.212 16.6772 27.212 16.1691C27.212 15.8193 27.2252 15.5191 27.2516 15.2683C27.278 15.0109 27.3407 14.7437 27.4397 14.4665C27.5387 14.1894 27.6706 13.965 27.8356 13.7934C28.0072 13.6219 28.2414 13.48 28.5384 13.3678C28.8419 13.2556 29.2016 13.1995 29.6173 13.1995C30.0331 13.1995 30.3894 13.2556 30.6864 13.3678C30.9833 13.48 31.2143 13.6219 31.3792 13.7934C31.5442 13.965 31.6729 14.1894 31.7653 14.4665C31.8577 14.7437 31.9171 15.0109 31.9434 15.2683C31.9698 15.5191 31.983 15.8193 31.983 16.1691V16.4264H28.2019C28.215 17.1325 28.3206 17.6307 28.5186 17.9211C28.7232 18.2048 29.1092 18.3467 29.6767 18.3467C30.1914 18.3467 30.5445 18.251 30.7358 18.0597C30.9338 17.8683 31.046 17.5878 31.0724 17.2183L31.894 17.2579C31.8676 17.5416 31.8214 17.7858 31.7554 17.9904C31.6894 18.1883 31.5805 18.383 31.4287 18.5744C31.277 18.7591 31.0526 18.901 30.7556 19C30.4587 19.0924 30.0924 19.1386 29.6569 19.1386ZM29.6074 13.9914C29.0861 13.9914 28.7265 14.1333 28.5285 14.417C28.3371 14.7008 28.2315 15.1297 28.2118 15.7038H30.9932C30.9734 15.1297 30.8711 14.7008 30.6864 14.417C30.5016 14.1333 30.1419 13.9914 29.6074 13.9914ZM36.8114 13.3381H37.4944V15.4168H36.851C36.7587 14.4665 36.2736 13.9914 35.396 13.9914C35.099 13.9914 34.8516 14.0508 34.6536 14.1696C34.4622 14.2818 34.3204 14.45 34.228 14.6744C34.1422 14.8988 34.0828 15.1231 34.0498 15.3475C34.0234 15.5719 34.0102 15.8457 34.0102 16.1691C34.0102 16.4462 34.0168 16.6805 34.03 16.8718C34.0432 17.0566 34.0762 17.2513 34.129 17.4558C34.1884 17.6538 34.2676 17.8122 34.3665 17.931C34.4655 18.0498 34.6041 18.1487 34.7823 18.2279C34.9604 18.3071 35.1749 18.3467 35.4257 18.3467C35.9272 18.3467 36.267 18.2576 36.4452 18.0794C36.63 17.8947 36.7323 17.6043 36.7521 17.2084L37.5538 17.248C37.534 17.5647 37.4911 17.8287 37.4252 18.0399C37.3592 18.2444 37.247 18.4358 37.0886 18.614C36.9368 18.7921 36.7158 18.9241 36.4254 19.0099C36.1417 19.0957 35.7853 19.1386 35.3564 19.1386C34.9407 19.1386 34.5843 19.0825 34.2874 18.9703C33.9904 18.8581 33.7594 18.7162 33.5945 18.5447C33.4361 18.3731 33.3107 18.1487 33.2183 17.8716C33.1259 17.5878 33.0666 17.3239 33.0402 17.0797C33.0204 16.829 33.0105 16.5254 33.0105 16.1691C33.0105 15.8193 33.0237 15.5158 33.0501 15.2584C33.0765 15.001 33.1358 14.7371 33.2282 14.4665C33.3272 14.1894 33.4592 13.965 33.6242 13.7934C33.7891 13.6219 34.0168 13.48 34.3072 13.3678C34.5975 13.2556 34.944 13.1995 35.3465 13.1995C35.98 13.1995 36.4716 13.4107 36.8213 13.833L36.8114 13.3381ZM38.6662 12.3285V11.6554H40.2599V13.8033C40.867 13.4008 41.4906 13.1995 42.1307 13.1995C43.2723 13.1995 43.8431 13.7967 43.8431 14.9911V18.3269H44.437V19H42.2792V18.3269H42.8335V15.0505C42.8335 14.6678 42.7609 14.3972 42.6157 14.2389C42.4771 14.0739 42.2396 13.9914 41.903 13.9914C41.3289 13.9914 40.7812 14.196 40.2599 14.6051V18.3269H40.8142V19H38.6662V18.3269H39.2601V12.3285H38.6662ZM45.5694 14.0112V13.3381H46.7078L47.0146 13.9023C47.6613 13.4338 48.3344 13.1995 49.0339 13.1995C50.1755 13.1995 50.7463 13.7967 50.7463 14.9911V18.3269H51.3402V19H49.1824V18.3269H49.7367V15.0505C49.7367 14.6678 49.6641 14.3972 49.5189 14.2389C49.3803 14.0739 49.1428 13.9914 48.8062 13.9914C48.2321 13.9914 47.6844 14.196 47.1631 14.6051V18.3269H47.7174V19H45.5694V18.3269H46.1634V14.0112H45.5694ZM54.8667 18.3467C55.0976 18.3467 55.2989 18.3236 55.4705 18.2774C55.6421 18.2246 55.7806 18.1454 55.8862 18.0399C55.9918 17.9277 56.0776 17.8122 56.1436 17.6934C56.2096 17.5746 56.2558 17.4229 56.2821 17.2381C56.3151 17.0533 56.3349 16.885 56.3415 16.7333C56.3547 16.5815 56.3613 16.3934 56.3613 16.1691C56.3613 15.9447 56.3547 15.7566 56.3415 15.6048C56.3349 15.4531 56.3151 15.2848 56.2821 15.1C56.2558 14.9153 56.2096 14.7635 56.1436 14.6447C56.0776 14.5259 55.9918 14.4137 55.8862 14.3082C55.7806 14.196 55.6421 14.1168 55.4705 14.0706C55.2989 14.0178 55.0976 13.9914 54.8667 13.9914C54.6357 13.9914 54.4344 14.0178 54.2629 14.0706C54.0913 14.1168 53.9527 14.196 53.8471 14.3082C53.7416 14.4137 53.6558 14.5259 53.5898 14.6447C53.5238 14.7635 53.4743 14.9153 53.4413 15.1C53.4149 15.2848 53.3951 15.4531 53.3819 15.6048C53.3753 15.7566 53.372 15.9447 53.372 16.1691C53.372 16.3934 53.3753 16.5815 53.3819 16.7333C53.3951 16.885 53.4149 17.0533 53.4413 17.2381C53.4743 17.4229 53.5238 17.5746 53.5898 17.6934C53.6558 17.8122 53.7416 17.9277 53.8471 18.0399C53.9527 18.1454 54.0913 18.2246 54.2629 18.2774C54.4344 18.3236 54.6357 18.3467 54.8667 18.3467ZM54.8667 19.1386C54.4311 19.1386 54.055 19.0825 53.7383 18.9703C53.4281 18.8581 53.1872 18.7162 53.0157 18.5447C52.8441 18.3731 52.7055 18.1487 52.5999 17.8716C52.501 17.5944 52.4383 17.3305 52.4119 17.0797C52.3855 16.8224 52.3723 16.5188 52.3723 16.1691C52.3723 15.8193 52.3855 15.5191 52.4119 15.2683C52.4383 15.0109 52.501 14.7437 52.5999 14.4665C52.7055 14.1894 52.8441 13.965 53.0157 13.7934C53.1872 13.6219 53.4281 13.48 53.7383 13.3678C54.055 13.2556 54.4311 13.1995 54.8667 13.1995C55.3022 13.1995 55.675 13.2556 55.9852 13.3678C56.3019 13.48 56.5461 13.6219 56.7177 13.7934C56.8892 13.965 57.0245 14.1894 57.1235 14.4665C57.2291 14.7437 57.2951 15.0109 57.3215 15.2683C57.3479 15.5191 57.3611 15.8193 57.3611 16.1691C57.3611 16.5188 57.3479 16.8224 57.3215 17.0797C57.2951 17.3305 57.2291 17.5944 57.1235 17.8716C57.0245 18.1487 56.8892 18.3731 56.7177 18.5447C56.5461 18.7162 56.3019 18.8581 55.9852 18.9703C55.675 19.0825 55.3022 19.1386 54.8667 19.1386ZM58.3945 12.3285V11.6554H59.9881V18.3269H60.582V19H58.3945V18.3269H58.9884V12.3285H58.3945ZM64.1174 18.3467C64.3484 18.3467 64.5497 18.3236 64.7212 18.2774C64.8928 18.2246 65.0314 18.1454 65.137 18.0399C65.2425 17.9277 65.3283 17.8122 65.3943 17.6934C65.4603 17.5746 65.5065 17.4229 65.5329 17.2381C65.5659 17.0533 65.5857 16.885 65.5923 16.7333C65.6055 16.5815 65.6121 16.3934 65.6121 16.1691C65.6121 15.9447 65.6055 15.7566 65.5923 15.6048C65.5857 15.4531 65.5659 15.2848 65.5329 15.1C65.5065 14.9153 65.4603 14.7635 65.3943 14.6447C65.3283 14.5259 65.2425 14.4137 65.137 14.3082C65.0314 14.196 64.8928 14.1168 64.7212 14.0706C64.5497 14.0178 64.3484 13.9914 64.1174 13.9914C63.8865 13.9914 63.6852 14.0178 63.5136 14.0706C63.3421 14.1168 63.2035 14.196 63.0979 14.3082C62.9923 14.4137 62.9065 14.5259 62.8405 14.6447C62.7745 14.7635 62.7251 14.9153 62.6921 15.1C62.6657 15.2848 62.6459 15.4531 62.6327 15.6048C62.6261 15.7566 62.6228 15.9447 62.6228 16.1691C62.6228 16.3934 62.6261 16.5815 62.6327 16.7333C62.6459 16.885 62.6657 17.0533 62.6921 17.2381C62.7251 17.4229 62.7745 17.5746 62.8405 17.6934C62.9065 17.8122 62.9923 17.9277 63.0979 18.0399C63.2035 18.1454 63.3421 18.2246 63.5136 18.2774C63.6852 18.3236 63.8865 18.3467 64.1174 18.3467ZM64.1174 19.1386C63.6819 19.1386 63.3058 19.0825 62.989 18.9703C62.6789 18.8581 62.438 18.7162 62.2664 18.5447C62.0949 18.3731 61.9563 18.1487 61.8507 17.8716C61.7517 17.5944 61.689 17.3305 61.6626 17.0797C61.6362 16.8224 61.623 16.5188 61.623 16.1691C61.623 15.8193 61.6362 15.5191 61.6626 15.2683C61.689 15.0109 61.7517 14.7437 61.8507 14.4665C61.9563 14.1894 62.0949 13.965 62.2664 13.7934C62.438 13.6219 62.6789 13.48 62.989 13.3678C63.3058 13.2556 63.6819 13.1995 64.1174 13.1995C64.553 13.1995 64.9258 13.2556 65.2359 13.3678C65.5527 13.48 65.7969 13.6219 65.9684 13.7934C66.14 13.965 66.2753 14.1894 66.3743 14.4665C66.4798 14.7437 66.5458 15.0109 66.5722 15.2683C66.5986 15.5191 66.6118 15.8193 66.6118 16.1691C66.6118 16.5188 66.5986 16.8224 66.5722 17.0797C66.5458 17.3305 66.4798 17.5944 66.3743 17.8716C66.2753 18.1487 66.14 18.3731 65.9684 18.5447C65.7969 18.7162 65.5527 18.8581 65.2359 18.9703C64.9258 19.0825 64.553 19.1386 64.1174 19.1386ZM70.1099 17.2579C69.6744 17.2579 69.3114 17.2084 69.0211 17.1094L68.6548 17.4756C68.5097 17.6208 68.4371 17.7759 68.4371 17.9409C68.4371 18.1718 68.5823 18.2873 68.8726 18.2873H71.0799C71.5749 18.2873 71.9576 18.4094 72.2282 18.6536C72.4987 18.8911 72.634 19.231 72.634 19.6731C72.634 19.97 72.5779 20.2241 72.4657 20.4353C72.3601 20.6464 72.2315 20.8048 72.0797 20.9104C71.9345 21.016 71.7266 21.0985 71.4561 21.1579C71.1921 21.2172 70.9612 21.2502 70.7632 21.2568C70.5652 21.27 70.3013 21.2766 69.9713 21.2766C69.6612 21.2766 69.3972 21.2667 69.1795 21.2469C68.9683 21.2337 68.7538 21.2007 68.5361 21.148C68.3249 21.1018 68.1533 21.0325 68.0213 20.9401C67.896 20.8477 67.7937 20.719 67.7145 20.554C67.6353 20.3957 67.5957 20.2043 67.5957 19.9799C67.5957 19.551 67.797 19.198 68.1995 18.9208C67.8234 18.7822 67.6353 18.4985 67.6353 18.0696C67.6353 17.7462 67.7706 17.4493 68.0411 17.1787L68.4371 16.7828C68.1269 16.4858 67.9718 15.9678 67.9718 15.2287C67.9718 14.9911 67.9817 14.7866 68.0015 14.615C68.0279 14.4368 68.084 14.2554 68.1698 14.0706C68.2556 13.8792 68.3711 13.7242 68.5163 13.6054C68.668 13.4866 68.8759 13.3909 69.1399 13.3183C69.4104 13.2391 69.7338 13.1995 70.1099 13.1995C70.5784 13.1995 70.9711 13.2622 71.2878 13.3876L72.0104 12.665L72.5746 13.2391L71.9411 13.8825C72.1457 14.1729 72.248 14.6216 72.248 15.2287C72.248 15.5323 72.2249 15.7896 72.1787 16.0008C72.1391 16.2054 72.05 16.4132 71.9114 16.6244C71.7728 16.8355 71.5518 16.9939 71.2482 17.0995C70.9513 17.2051 70.5718 17.2579 70.1099 17.2579ZM70.1099 16.5551C70.5982 16.5551 70.915 16.4495 71.0602 16.2383C71.2119 16.0206 71.2878 15.684 71.2878 15.2287C71.2878 14.7734 71.2119 14.4401 71.0602 14.229C70.915 14.0112 70.5982 13.9023 70.1099 13.9023C69.6216 13.9023 69.3015 14.0112 69.1498 14.229C69.0046 14.4401 68.932 14.7734 68.932 15.2287C68.932 15.684 69.0046 16.0206 69.1498 16.2383C69.3015 16.4495 69.6216 16.5551 70.1099 16.5551ZM70.0109 20.554C70.2683 20.554 70.4695 20.5507 70.6147 20.5442C70.7665 20.5376 70.9183 20.5178 71.07 20.4848C71.2284 20.4518 71.3472 20.4023 71.4264 20.3363C71.5056 20.2769 71.5683 20.1944 71.6145 20.0888C71.6673 19.9832 71.6936 19.848 71.6936 19.683C71.6936 19.4916 71.6409 19.3398 71.5353 19.2277C71.4363 19.1221 71.3274 19.0561 71.2086 19.0297C71.0964 19.0099 70.9546 19 70.783 19H68.8429C68.5921 19.2178 68.4668 19.4949 68.4668 19.8315C68.4668 20.135 68.5921 20.3297 68.8429 20.4155C69.0937 20.5079 69.483 20.554 70.0109 20.554ZM73.5537 14.0112V13.3381H75.1473V18.3269H75.7412V19H73.5537V18.3269H74.1476V14.0112H73.5537ZM74.6524 12.5462C74.4808 12.5462 74.3489 12.5099 74.2565 12.4374C74.1641 12.3582 74.108 12.279 74.0882 12.1998C74.075 12.114 74.0684 12.0018 74.0684 11.8633C74.0684 11.7181 74.075 11.6059 74.0882 11.5267C74.108 11.4409 74.1641 11.3617 74.2565 11.2891C74.3489 11.21 74.4808 11.1704 74.6524 11.1704C74.791 11.1704 74.9032 11.1902 74.989 11.2298C75.0748 11.2627 75.1341 11.3188 75.1671 11.398C75.2001 11.4706 75.2199 11.5399 75.2265 11.6059C75.2397 11.6719 75.2463 11.7577 75.2463 11.8633C75.2463 11.9622 75.2397 12.0447 75.2265 12.1107C75.2199 12.1701 75.2001 12.2394 75.1671 12.3186C75.1341 12.3978 75.0748 12.4572 74.989 12.4968C74.9032 12.5297 74.791 12.5462 74.6524 12.5462ZM79.2843 19.1386C78.7893 19.1386 78.3802 19.0759 78.0569 18.9505C77.7335 18.8251 77.4827 18.6305 77.3046 18.3665C77.133 18.1025 77.0109 17.799 76.9383 17.4558C76.8723 17.1061 76.8393 16.6772 76.8393 16.1691C76.8393 15.8193 76.8525 15.5191 76.8789 15.2683C76.9053 15.0109 76.968 14.7437 77.067 14.4665C77.166 14.1894 77.298 13.965 77.4629 13.7934C77.6345 13.6219 77.8688 13.48 78.1657 13.3678C78.4693 13.2556 78.8289 13.1995 79.2447 13.1995C79.6604 13.1995 80.0167 13.2556 80.3137 13.3678C80.6106 13.48 80.8416 13.6219 81.0066 13.7934C81.1715 13.965 81.3002 14.1894 81.3926 14.4665C81.485 14.7437 81.5444 15.0109 81.5708 15.2683C81.5972 15.5191 81.6104 15.8193 81.6104 16.1691V16.4264H77.8292C77.8424 17.1325 77.948 17.6307 78.1459 17.9211C78.3505 18.2048 78.7365 18.3467 79.304 18.3467C79.8188 18.3467 80.1718 18.251 80.3632 18.0597C80.5611 17.8683 80.6733 17.5878 80.6997 17.2183L81.5213 17.2579C81.4949 17.5416 81.4487 17.7858 81.3827 17.9904C81.3167 18.1883 81.2078 18.383 81.0561 18.5744C80.9043 18.7591 80.6799 18.901 80.383 19C80.086 19.0924 79.7198 19.1386 79.2843 19.1386ZM79.2348 13.9914C78.7134 13.9914 78.3538 14.1333 78.1558 14.417C77.9645 14.7008 77.8589 15.1297 77.8391 15.7038H80.6205C80.6007 15.1297 80.4985 14.7008 80.3137 14.417C80.1289 14.1333 79.7693 13.9914 79.2348 13.9914ZM86.2507 13.3381H86.9337V15.3772H86.2903C86.2573 14.8097 86.1319 14.4368 85.9142 14.2587C85.703 14.0805 85.3302 13.9914 84.7956 13.9914C84.4393 13.9914 84.1786 14.0673 84.0137 14.2191C83.8487 14.3642 83.7662 14.5589 83.7662 14.8031C83.7662 15.0274 83.8322 15.199 83.9642 15.3178C84.1028 15.4366 84.3238 15.5356 84.6274 15.6147L85.5974 15.8721C86.1319 16.0107 86.5213 16.1988 86.7654 16.4363C87.0096 16.6673 87.1317 17.017 87.1317 17.4855C87.1317 18.5876 86.4685 19.1386 85.1421 19.1386C84.3766 19.1386 83.8058 18.8977 83.4297 18.416L83.4495 19H82.7665V16.9609H83.4C83.4924 17.8848 84.0104 18.3467 84.954 18.3467C85.7393 18.3467 86.1319 18.0761 86.1319 17.535C86.1319 17.3371 86.0692 17.1787 85.9439 17.0599C85.8185 16.9345 85.6007 16.829 85.2906 16.7432L84.3205 16.4957C83.7728 16.3373 83.3769 16.146 83.1327 15.9216C82.8886 15.6906 82.7665 15.3178 82.7665 14.8031C82.7665 14.328 82.9282 13.9419 83.2515 13.645C83.5748 13.348 84.0599 13.1995 84.7066 13.1995C85.4061 13.1995 85.9241 13.3975 86.2606 13.7934L86.2507 13.3381Z" fill="white"/>
<path d="M18.29 19.5518H0V1.26172H18.29V19.5518ZM8.86035 3.11133C8.48211 3.11138 8.17383 3.42043 8.17383 3.7959V6.21875C8.17408 6.59396 8.47941 6.90221 8.85742 6.90234H11.1074C11.4829 6.90234 11.792 7.20863 11.792 7.58691V8.61328C11.792 10.7132 12.1783 10.4404 10.1367 10.4404H9.11328C8.7379 10.4406 8.42954 10.7497 8.42676 11.1279V13.0078C8.42676 13.3833 8.12047 13.6924 7.74219 13.6924H5.50586C5.13055 13.6924 4.82154 13.9979 4.82129 14.376V16.7686C4.8213 17.144 5.12762 17.4531 5.50586 17.4531H7.89844C8.27653 17.4529 8.58495 17.1467 8.58496 16.7686V14.541C8.58496 14.1655 8.89125 13.8564 9.26953 13.8564H11.1631C11.5414 13.8564 11.8506 13.5502 11.8506 13.1719V12.1484C11.8506 10.107 11.5752 10.4902 13.6748 10.4902H14.8711C15.2465 10.4902 15.5555 10.1848 15.5557 9.80664V7.41406C15.5555 7.03868 15.2493 6.73047 14.8711 6.73047H12.6484C12.2731 6.73024 11.9649 6.42401 11.9648 6.0459V3.7959C11.9648 3.4204 11.6586 3.11133 11.2803 3.11133H8.86035ZM5.3584 7.28613C4.98295 7.2862 4.67384 7.59525 4.67383 7.9707V9.03613C4.67388 9.41434 4.9802 9.72259 5.3584 9.72266H6.42676C6.80216 9.72258 7.11128 9.41432 7.11133 9.03613V7.9707C7.11132 7.59526 6.80497 7.28621 6.42676 7.28613H5.3584ZM3.61426 4.39355C3.33903 4.39372 3.11133 4.61941 3.11133 4.89746V5.68164C3.11146 5.95958 3.33633 6.1844 3.61426 6.18457H4.39941C4.6745 6.18432 4.90221 5.95953 4.90234 5.68164V4.89746C4.90234 4.62225 4.67735 4.39381 4.39941 4.39355H3.61426Z" fill="white"/>
</svg>
