<svg xmlns="http://www.w3.org/2000/svg" viewBox="0 0 321.094 321.094" xml:space="preserve"><path d="M277.54 19.907h-63.18V7.5a7.5 7.5 0 0 0-7.5-7.5h-92.625a7.5 7.5 0 0 0-7.5 7.5v12.407h-63.18a7.5 7.5 0 0 0-7.5 7.5v286.187a7.5 7.5 0 0 0 7.5 7.5h233.984a7.5 7.5 0 0 0 7.5-7.5V27.407a7.5 7.5 0 0 0-7.499-7.5M121.735 15h77.625v24h-77.625zm148.306 291.094H51.056V34.907h55.68V46.5a7.5 7.5 0 0 0 7.5 7.5h92.625a7.5 7.5 0 0 0 7.5-7.5V34.907h55.68z"/><path d="M109.397 86.5h-35a7.5 7.5 0 0 0-7.5 7.5v35a7.5 7.5 0 0 0 7.5 7.5h35a7.5 7.5 0 0 0 7.5-7.5V94a7.5 7.5 0 0 0-7.5-7.5m-7.5 35h-20v-20h20zm25-27.5v35a7.5 7.5 0 0 0 7.5 7.5h112.301a7.5 7.5 0 0 0 7.5-7.5V94a7.5 7.5 0 0 0-7.5-7.5H134.397a7.5 7.5 0 0 0-7.5 7.5m15 7.5h97.301v20h-97.301zm-32.5 54h-35a7.5 7.5 0 0 0-7.5 7.5v35a7.5 7.5 0 0 0 7.5 7.5h35a7.5 7.5 0 0 0 7.5-7.5v-35a7.5 7.5 0 0 0-7.5-7.5m-7.5 35h-20v-20h20zm144.801-35H134.397a7.5 7.5 0 0 0-7.5 7.5v35a7.5 7.5 0 0 0 7.5 7.5h112.301a7.5 7.5 0 0 0 7.5-7.5v-35a7.5 7.5 0 0 0-7.5-7.5m-7.5 35h-97.301v-20h97.301zm-129.801 34h-35a7.5 7.5 0 0 0-7.5 7.5v35a7.5 7.5 0 0 0 7.5 7.5h35a7.5 7.5 0 0 0 7.5-7.5v-35a7.5 7.5 0 0 0-7.5-7.5m-7.5 35h-20v-20h20zm144.801-35H134.397a7.5 7.5 0 0 0-7.5 7.5v35a7.5 7.5 0 0 0 7.5 7.5h112.301a7.5 7.5 0 0 0 7.5-7.5v-35a7.5 7.5 0 0 0-7.5-7.5m-7.5 35h-97.301v-20h97.301z"/></svg>